<mxfile host="app.diagrams.net" agent="Mozilla/5.0 (Windows NT 10.0; Win64; x64) AppleWebKit/537.36 (KHTML, like Gecko) Chrome/140.0.0.0 Safari/537.36" version="28.2.5" pages="2">
  <diagram name="modelo_conceitual" id="VZhjy6GxNPBdqGkD-htc">
    <mxGraphModel grid="1" page="1" gridSize="10" guides="1" tooltips="1" connect="1" arrows="1" fold="1" pageScale="1" pageWidth="827" pageHeight="1169" math="0" shadow="0">
      <root>
        <mxCell id="0" />
        <mxCell id="1" parent="0" />
        <mxCell id="a6oSSyxVjkk4hZ5CLGdC-3" value="email" style="ellipse;whiteSpace=wrap;html=1;align=center;" vertex="1" parent="1">
          <mxGeometry x="90" y="210" width="100" height="40" as="geometry" />
        </mxCell>
        <mxCell id="a6oSSyxVjkk4hZ5CLGdC-4" value="usuario" style="whiteSpace=wrap;html=1;align=center;" vertex="1" parent="1">
          <mxGeometry x="230" y="80" width="100" height="40" as="geometry" />
        </mxCell>
        <mxCell id="a6oSSyxVjkk4hZ5CLGdC-7" value="" style="endArrow=none;html=1;rounded=0;exitX=0.5;exitY=0;exitDx=0;exitDy=0;entryX=0.25;entryY=1;entryDx=0;entryDy=0;" edge="1" parent="1" source="a6oSSyxVjkk4hZ5CLGdC-3" target="a6oSSyxVjkk4hZ5CLGdC-4">
          <mxGeometry relative="1" as="geometry">
            <mxPoint x="30" y="139.66" as="sourcePoint" />
            <mxPoint x="190" y="139.66" as="targetPoint" />
          </mxGeometry>
        </mxCell>
        <mxCell id="a6oSSyxVjkk4hZ5CLGdC-12" value="notas" style="whiteSpace=wrap;html=1;align=center;" vertex="1" parent="1">
          <mxGeometry x="220" y="280" width="100" height="40" as="geometry" />
        </mxCell>
        <mxCell id="a6oSSyxVjkk4hZ5CLGdC-13" value="id_usuario" style="ellipse;whiteSpace=wrap;html=1;align=center;" vertex="1" parent="1">
          <mxGeometry x="10" y="430" width="100" height="40" as="geometry" />
        </mxCell>
        <mxCell id="a6oSSyxVjkk4hZ5CLGdC-14" value="descricao" style="ellipse;whiteSpace=wrap;html=1;align=center;" vertex="1" parent="1">
          <mxGeometry x="120" y="440" width="100" height="40" as="geometry" />
        </mxCell>
        <mxCell id="a6oSSyxVjkk4hZ5CLGdC-18" value="" style="endArrow=none;html=1;rounded=0;exitX=0.5;exitY=0;exitDx=0;exitDy=0;entryX=0.061;entryY=1.088;entryDx=0;entryDy=0;entryPerimeter=0;" edge="1" parent="1" source="a6oSSyxVjkk4hZ5CLGdC-13" target="a6oSSyxVjkk4hZ5CLGdC-12">
          <mxGeometry relative="1" as="geometry">
            <mxPoint x="60" y="350" as="sourcePoint" />
            <mxPoint x="220" y="350" as="targetPoint" />
          </mxGeometry>
        </mxCell>
        <mxCell id="a6oSSyxVjkk4hZ5CLGdC-19" value="" style="endArrow=none;html=1;rounded=0;entryX=0.5;entryY=1;entryDx=0;entryDy=0;exitX=0.5;exitY=0;exitDx=0;exitDy=0;" edge="1" parent="1" source="a6oSSyxVjkk4hZ5CLGdC-14" target="a6oSSyxVjkk4hZ5CLGdC-12">
          <mxGeometry relative="1" as="geometry">
            <mxPoint x="120" y="400" as="sourcePoint" />
            <mxPoint x="280" y="400" as="targetPoint" />
          </mxGeometry>
        </mxCell>
        <mxCell id="80txVVCO5CHQGp2V6TWg-1" value="senha" style="ellipse;whiteSpace=wrap;html=1;align=center;" vertex="1" parent="1">
          <mxGeometry x="364" y="210" width="100" height="40" as="geometry" />
        </mxCell>
        <mxCell id="80txVVCO5CHQGp2V6TWg-2" value="" style="endArrow=none;html=1;rounded=0;exitX=0.75;exitY=1;exitDx=0;exitDy=0;entryX=0.456;entryY=0.01;entryDx=0;entryDy=0;entryPerimeter=0;" edge="1" parent="1" source="a6oSSyxVjkk4hZ5CLGdC-4" target="80txVVCO5CHQGp2V6TWg-1">
          <mxGeometry relative="1" as="geometry">
            <mxPoint x="350" y="150" as="sourcePoint" />
            <mxPoint x="510" y="150" as="targetPoint" />
          </mxGeometry>
        </mxCell>
        <mxCell id="ZBtxtDKjSNrO2l1g3xXk-1" value="tags" style="whiteSpace=wrap;html=1;align=center;" vertex="1" parent="1">
          <mxGeometry x="240" y="520" width="100" height="40" as="geometry" />
        </mxCell>
        <mxCell id="ZBtxtDKjSNrO2l1g3xXk-2" value="id_tags" style="ellipse;whiteSpace=wrap;html=1;align=center;" vertex="1" parent="1">
          <mxGeometry x="30" y="620" width="100" height="40" as="geometry" />
        </mxCell>
        <mxCell id="ZBtxtDKjSNrO2l1g3xXk-3" value="nome_tags" style="ellipse;whiteSpace=wrap;html=1;align=center;" vertex="1" parent="1">
          <mxGeometry x="214" y="640" width="100" height="40" as="geometry" />
        </mxCell>
        <mxCell id="ZBtxtDKjSNrO2l1g3xXk-4" value="" style="endArrow=none;html=1;rounded=0;exitX=0.4;exitY=0;exitDx=0;exitDy=0;entryX=0;entryY=1;entryDx=0;entryDy=0;exitPerimeter=0;" edge="1" parent="1" source="ZBtxtDKjSNrO2l1g3xXk-2">
          <mxGeometry relative="1" as="geometry">
            <mxPoint x="42.5" y="600" as="sourcePoint" />
            <mxPoint x="237.5" y="540" as="targetPoint" />
            <Array as="points" />
          </mxGeometry>
        </mxCell>
        <mxCell id="ZBtxtDKjSNrO2l1g3xXk-5" value="" style="endArrow=none;html=1;rounded=0;entryX=0.5;entryY=0;entryDx=0;entryDy=0;exitX=0.436;exitY=1.038;exitDx=0;exitDy=0;exitPerimeter=0;" edge="1" parent="1" source="ZBtxtDKjSNrO2l1g3xXk-1" target="ZBtxtDKjSNrO2l1g3xXk-3">
          <mxGeometry relative="1" as="geometry">
            <mxPoint x="280" y="560" as="sourcePoint" />
            <mxPoint x="444" y="560" as="targetPoint" />
          </mxGeometry>
        </mxCell>
        <mxCell id="ZBtxtDKjSNrO2l1g3xXk-8" value="id_usuario" style="ellipse;whiteSpace=wrap;html=1;align=center;" vertex="1" parent="1">
          <mxGeometry x="220" y="210" width="100" height="40" as="geometry" />
        </mxCell>
        <mxCell id="ZBtxtDKjSNrO2l1g3xXk-9" value="" style="endArrow=none;html=1;rounded=0;exitX=0.453;exitY=1.055;exitDx=0;exitDy=0;entryX=0.5;entryY=0;entryDx=0;entryDy=0;exitPerimeter=0;" edge="1" parent="1" source="a6oSSyxVjkk4hZ5CLGdC-4" target="ZBtxtDKjSNrO2l1g3xXk-8">
          <mxGeometry relative="1" as="geometry">
            <mxPoint x="265" y="150" as="sourcePoint" />
            <mxPoint x="370" y="240" as="targetPoint" />
          </mxGeometry>
        </mxCell>
        <mxCell id="y0hJ6i2uco5pf7o3vvEw-1" value="data_criacao" style="ellipse;whiteSpace=wrap;html=1;align=center;" vertex="1" parent="1">
          <mxGeometry x="240" y="440" width="100" height="40" as="geometry" />
        </mxCell>
        <mxCell id="y0hJ6i2uco5pf7o3vvEw-2" value="data_update" style="ellipse;whiteSpace=wrap;html=1;align=center;" vertex="1" parent="1">
          <mxGeometry x="350" y="440" width="100" height="40" as="geometry" />
        </mxCell>
        <mxCell id="y0hJ6i2uco5pf7o3vvEw-3" value="" style="endArrow=none;html=1;rounded=0;entryX=0.75;entryY=1;entryDx=0;entryDy=0;exitX=0.5;exitY=0;exitDx=0;exitDy=0;" edge="1" parent="1" source="y0hJ6i2uco5pf7o3vvEw-1" target="a6oSSyxVjkk4hZ5CLGdC-12">
          <mxGeometry relative="1" as="geometry">
            <mxPoint x="320" y="420" as="sourcePoint" />
            <mxPoint x="380" y="350" as="targetPoint" />
          </mxGeometry>
        </mxCell>
        <mxCell id="y0hJ6i2uco5pf7o3vvEw-4" value="" style="endArrow=none;html=1;rounded=0;entryX=1;entryY=0.75;entryDx=0;entryDy=0;exitX=0.357;exitY=0.019;exitDx=0;exitDy=0;exitPerimeter=0;" edge="1" parent="1" source="y0hJ6i2uco5pf7o3vvEw-2" target="a6oSSyxVjkk4hZ5CLGdC-12">
          <mxGeometry relative="1" as="geometry">
            <mxPoint x="433" y="400" as="sourcePoint" />
            <mxPoint x="364" y="320" as="targetPoint" />
          </mxGeometry>
        </mxCell>
        <mxCell id="tTTmqEYUNSCp-xZa8Ijm-1" value="id_notas" style="ellipse;whiteSpace=wrap;html=1;align=center;" vertex="1" parent="1">
          <mxGeometry x="450" y="420" width="100" height="40" as="geometry" />
        </mxCell>
        <mxCell id="tTTmqEYUNSCp-xZa8Ijm-2" value="" style="endArrow=none;html=1;rounded=0;entryX=0.061;entryY=0.219;entryDx=0;entryDy=0;entryPerimeter=0;exitX=1;exitY=0.5;exitDx=0;exitDy=0;" edge="1" parent="1" source="a6oSSyxVjkk4hZ5CLGdC-12" target="tTTmqEYUNSCp-xZa8Ijm-1">
          <mxGeometry relative="1" as="geometry">
            <mxPoint x="330" y="340" as="sourcePoint" />
            <mxPoint x="500" y="339.65999999999997" as="targetPoint" />
          </mxGeometry>
        </mxCell>
        <mxCell id="BGSDgt4QAcyyEVDsvGDu-1" value="status" style="ellipse;whiteSpace=wrap;html=1;align=center;" vertex="1" parent="1">
          <mxGeometry x="10" y="360" width="100" height="40" as="geometry" />
        </mxCell>
        <mxCell id="BGSDgt4QAcyyEVDsvGDu-2" value="" style="endArrow=none;html=1;rounded=0;entryX=0;entryY=0.5;entryDx=0;entryDy=0;exitX=0.5;exitY=0;exitDx=0;exitDy=0;" edge="1" parent="1" source="BGSDgt4QAcyyEVDsvGDu-1" target="a6oSSyxVjkk4hZ5CLGdC-12">
          <mxGeometry relative="1" as="geometry">
            <mxPoint x="54" y="299.66" as="sourcePoint" />
            <mxPoint x="214" y="299.66" as="targetPoint" />
            <Array as="points">
              <mxPoint x="150" y="330" />
            </Array>
          </mxGeometry>
        </mxCell>
        <mxCell id="M30i0A29a0JAUSI2fcbp-1" value="id_usuario" style="ellipse;whiteSpace=wrap;html=1;align=center;" vertex="1" parent="1">
          <mxGeometry x="380" y="630" width="100" height="40" as="geometry" />
        </mxCell>
        <mxCell id="M30i0A29a0JAUSI2fcbp-2" value="" style="endArrow=none;html=1;rounded=0;entryX=0.5;entryY=0;entryDx=0;entryDy=0;exitX=0.75;exitY=1;exitDx=0;exitDy=0;" edge="1" parent="1" source="ZBtxtDKjSNrO2l1g3xXk-1" target="M30i0A29a0JAUSI2fcbp-1">
          <mxGeometry relative="1" as="geometry">
            <mxPoint x="434" y="545" as="sourcePoint" />
            <mxPoint x="414" y="623" as="targetPoint" />
          </mxGeometry>
        </mxCell>
        <mxCell id="z7rPxJ7fp-Ov0zuHcJPw-1" value="titulos" style="ellipse;whiteSpace=wrap;html=1;align=center;" vertex="1" parent="1">
          <mxGeometry x="460" y="370" width="100" height="40" as="geometry" />
        </mxCell>
        <mxCell id="z7rPxJ7fp-Ov0zuHcJPw-2" value="" style="endArrow=none;html=1;rounded=0;entryX=0.416;entryY=0.04;entryDx=0;entryDy=0;entryPerimeter=0;exitX=1;exitY=0.25;exitDx=0;exitDy=0;" edge="1" parent="1" source="a6oSSyxVjkk4hZ5CLGdC-12" target="z7rPxJ7fp-Ov0zuHcJPw-1">
          <mxGeometry relative="1" as="geometry">
            <mxPoint x="362" y="260" as="sourcePoint" />
            <mxPoint x="498" y="389" as="targetPoint" />
          </mxGeometry>
        </mxCell>
        <mxCell id="iNtlST9Bs_7caoCDKiEb-1" value="settings" style="whiteSpace=wrap;html=1;align=center;" vertex="1" parent="1">
          <mxGeometry x="220" y="750" width="100" height="40" as="geometry" />
        </mxCell>
        <mxCell id="iNtlST9Bs_7caoCDKiEb-2" value="id_config" style="ellipse;whiteSpace=wrap;html=1;align=center;" vertex="1" parent="1">
          <mxGeometry x="60" y="880" width="100" height="40" as="geometry" />
        </mxCell>
        <mxCell id="iNtlST9Bs_7caoCDKiEb-3" value="id_usuario" style="ellipse;whiteSpace=wrap;html=1;align=center;" vertex="1" parent="1">
          <mxGeometry x="170" y="880" width="100" height="40" as="geometry" />
        </mxCell>
        <mxCell id="iNtlST9Bs_7caoCDKiEb-4" value="theme" style="ellipse;whiteSpace=wrap;html=1;align=center;" vertex="1" parent="1">
          <mxGeometry x="290" y="880" width="100" height="40" as="geometry" />
        </mxCell>
        <mxCell id="iNtlST9Bs_7caoCDKiEb-5" value="font" style="ellipse;whiteSpace=wrap;html=1;align=center;" vertex="1" parent="1">
          <mxGeometry x="414" y="880" width="100" height="40" as="geometry" />
        </mxCell>
        <mxCell id="iNtlST9Bs_7caoCDKiEb-6" value="" style="endArrow=none;html=1;rounded=0;entryX=0;entryY=0.75;entryDx=0;entryDy=0;exitX=0.427;exitY=0.034;exitDx=0;exitDy=0;exitPerimeter=0;" edge="1" parent="1" source="iNtlST9Bs_7caoCDKiEb-2" target="iNtlST9Bs_7caoCDKiEb-1">
          <mxGeometry relative="1" as="geometry">
            <mxPoint x="54" y="810" as="sourcePoint" />
            <mxPoint x="214" y="810" as="targetPoint" />
            <Array as="points" />
          </mxGeometry>
        </mxCell>
        <mxCell id="iNtlST9Bs_7caoCDKiEb-7" value="" style="endArrow=none;html=1;rounded=0;entryX=0.5;entryY=1;entryDx=0;entryDy=0;exitX=0.568;exitY=-0.021;exitDx=0;exitDy=0;exitPerimeter=0;" edge="1" parent="1" source="iNtlST9Bs_7caoCDKiEb-3" target="iNtlST9Bs_7caoCDKiEb-1">
          <mxGeometry relative="1" as="geometry">
            <mxPoint x="153" y="901" as="sourcePoint" />
            <mxPoint x="270" y="800" as="targetPoint" />
            <Array as="points" />
          </mxGeometry>
        </mxCell>
        <mxCell id="iNtlST9Bs_7caoCDKiEb-9" value="" style="endArrow=none;html=1;rounded=0;entryX=0.75;entryY=1;entryDx=0;entryDy=0;exitX=0.5;exitY=0;exitDx=0;exitDy=0;" edge="1" parent="1" source="iNtlST9Bs_7caoCDKiEb-4" target="iNtlST9Bs_7caoCDKiEb-1">
          <mxGeometry relative="1" as="geometry">
            <mxPoint x="330" y="869" as="sourcePoint" />
            <mxPoint x="373" y="780" as="targetPoint" />
            <Array as="points" />
          </mxGeometry>
        </mxCell>
        <mxCell id="iNtlST9Bs_7caoCDKiEb-11" value="" style="endArrow=none;html=1;rounded=0;entryX=1;entryY=0.75;entryDx=0;entryDy=0;exitX=0.36;exitY=0;exitDx=0;exitDy=0;exitPerimeter=0;" edge="1" parent="1" source="iNtlST9Bs_7caoCDKiEb-5" target="iNtlST9Bs_7caoCDKiEb-1">
          <mxGeometry relative="1" as="geometry">
            <mxPoint x="435" y="860" as="sourcePoint" />
            <mxPoint x="390" y="770" as="targetPoint" />
            <Array as="points" />
          </mxGeometry>
        </mxCell>
      </root>
    </mxGraphModel>
  </diagram>
  <diagram id="SE5THsxm34gRBYSI2C7C" name="modelo_conceitual">
    <mxGraphModel dx="1042" dy="562" grid="1" gridSize="10" guides="1" tooltips="1" connect="1" arrows="1" fold="1" page="1" pageScale="1" pageWidth="827" pageHeight="1169" math="0" shadow="0">
      <root>
        <mxCell id="0" />
        <mxCell id="1" parent="0" />
        <mxCell id="3S9H1yKCVGA8mmYnyXc3-1" value="USUARIO" style="whiteSpace=wrap;html=1;align=center;" parent="1" vertex="1">
          <mxGeometry x="10" y="80" width="100" height="40" as="geometry" />
        </mxCell>
        <mxCell id="qQdqJmW8acy2W-kEJlep-1" value="" style="endArrow=none;html=1;rounded=0;exitX=1;exitY=0.5;exitDx=0;exitDy=0;" parent="1" source="3S9H1yKCVGA8mmYnyXc3-2" edge="1">
          <mxGeometry relative="1" as="geometry">
            <mxPoint x="190" y="99.5" as="sourcePoint" />
            <mxPoint x="240" y="100" as="targetPoint" />
            <Array as="points" />
          </mxGeometry>
        </mxCell>
        <mxCell id="qQdqJmW8acy2W-kEJlep-3" value="1" style="text;html=1;align=center;verticalAlign=middle;resizable=0;points=[];autosize=1;strokeColor=none;fillColor=none;" parent="1" vertex="1">
          <mxGeometry x="250" y="68" width="30" height="30" as="geometry" />
        </mxCell>
        <mxCell id="x6Yg9fEAuxLOCvZpa_Rq-1" value="USUARIO" style="whiteSpace=wrap;html=1;align=center;" parent="1" vertex="1">
          <mxGeometry x="70" y="600" width="100" height="40" as="geometry" />
        </mxCell>
        <mxCell id="x6Yg9fEAuxLOCvZpa_Rq-2" value="para" style="shape=rhombus;perimeter=rhombusPerimeter;whiteSpace=wrap;html=1;align=center;" parent="1" vertex="1">
          <mxGeometry x="240" y="590" width="120" height="60" as="geometry" />
        </mxCell>
        <mxCell id="x6Yg9fEAuxLOCvZpa_Rq-3" value="NOTAS" style="whiteSpace=wrap;html=1;align=center;" parent="1" vertex="1">
          <mxGeometry x="450" y="600" width="100" height="40" as="geometry" />
        </mxCell>
        <mxCell id="x6Yg9fEAuxLOCvZpa_Rq-8" value="1" style="text;html=1;align=center;verticalAlign=middle;resizable=0;points=[];autosize=1;strokeColor=none;fillColor=none;" parent="1" vertex="1">
          <mxGeometry x="110" y="68" width="30" height="30" as="geometry" />
        </mxCell>
        <mxCell id="zfheSth1aC9l9Pyh0Zh5-2" value="" style="endArrow=none;html=1;rounded=0;exitX=1;exitY=0.5;exitDx=0;exitDy=0;" parent="1" source="3S9H1yKCVGA8mmYnyXc3-2" target="3S9H1yKCVGA8mmYnyXc3-3" edge="1">
          <mxGeometry relative="1" as="geometry">
            <mxPoint x="400" y="100" as="sourcePoint" />
            <mxPoint x="610" y="99.5" as="targetPoint" />
            <Array as="points" />
          </mxGeometry>
        </mxCell>
        <mxCell id="3S9H1yKCVGA8mmYnyXc3-3" value="NOTAS" style="whiteSpace=wrap;html=1;align=center;" parent="1" vertex="1">
          <mxGeometry x="380" y="80" width="100" height="40" as="geometry" />
        </mxCell>
        <mxCell id="t0s_5cc9mNd_U5zVAz2j-1" value="N" style="text;html=1;align=center;verticalAlign=middle;resizable=0;points=[];autosize=1;strokeColor=none;fillColor=none;" parent="1" vertex="1">
          <mxGeometry x="320" y="68" width="30" height="30" as="geometry" />
        </mxCell>
        <mxCell id="t0s_5cc9mNd_U5zVAz2j-2" value="1" style="text;html=1;align=center;verticalAlign=middle;resizable=0;points=[];autosize=1;strokeColor=none;fillColor=none;" parent="1" vertex="1">
          <mxGeometry x="210" y="590" width="30" height="30" as="geometry" />
        </mxCell>
        <mxCell id="t0s_5cc9mNd_U5zVAz2j-3" value="N" style="text;html=1;align=center;verticalAlign=middle;resizable=0;points=[];autosize=1;strokeColor=none;fillColor=none;" parent="1" vertex="1">
          <mxGeometry x="410" y="590" width="30" height="30" as="geometry" />
        </mxCell>
        <mxCell id="axYoTxfCokPlh2GO-Hol-1" value="" style="endArrow=none;html=1;rounded=0;exitX=1;exitY=0.5;exitDx=0;exitDy=0;" parent="1" source="3S9H1yKCVGA8mmYnyXc3-1" target="3S9H1yKCVGA8mmYnyXc3-2" edge="1">
          <mxGeometry relative="1" as="geometry">
            <mxPoint x="110" y="100" as="sourcePoint" />
            <mxPoint x="240" y="100" as="targetPoint" />
            <Array as="points" />
          </mxGeometry>
        </mxCell>
        <mxCell id="3S9H1yKCVGA8mmYnyXc3-2" value="para" style="shape=rhombus;perimeter=rhombusPerimeter;whiteSpace=wrap;html=1;align=center;" parent="1" vertex="1">
          <mxGeometry x="190" y="68" width="120" height="60" as="geometry" />
        </mxCell>
        <mxCell id="axYoTxfCokPlh2GO-Hol-2" value="" style="endArrow=none;html=1;rounded=0;exitX=1;exitY=0.5;exitDx=0;exitDy=0;entryX=0;entryY=0.5;entryDx=0;entryDy=0;" parent="1" source="x6Yg9fEAuxLOCvZpa_Rq-2" target="x6Yg9fEAuxLOCvZpa_Rq-3" edge="1">
          <mxGeometry relative="1" as="geometry">
            <mxPoint x="360" y="620" as="sourcePoint" />
            <mxPoint x="442" y="619" as="targetPoint" />
            <Array as="points" />
          </mxGeometry>
        </mxCell>
        <mxCell id="axYoTxfCokPlh2GO-Hol-4" value="" style="endArrow=none;html=1;rounded=0;exitX=1;exitY=0.5;exitDx=0;exitDy=0;entryX=0;entryY=0.5;entryDx=0;entryDy=0;" parent="1" source="x6Yg9fEAuxLOCvZpa_Rq-1" target="x6Yg9fEAuxLOCvZpa_Rq-2" edge="1">
          <mxGeometry relative="1" as="geometry">
            <mxPoint x="190" y="620" as="sourcePoint" />
            <mxPoint x="200" y="670" as="targetPoint" />
            <Array as="points" />
          </mxGeometry>
        </mxCell>
        <mxCell id="gWf2B7BKRjPqNci1-qve-1" value="TAGS" style="whiteSpace=wrap;html=1;align=center;" parent="1" vertex="1">
          <mxGeometry x="380" y="330" width="100" height="40" as="geometry" />
        </mxCell>
        <mxCell id="gWf2B7BKRjPqNci1-qve-2" value="para" style="shape=rhombus;perimeter=rhombusPerimeter;whiteSpace=wrap;html=1;align=center;" parent="1" vertex="1">
          <mxGeometry x="370" y="190" width="120" height="60" as="geometry" />
        </mxCell>
        <mxCell id="gWf2B7BKRjPqNci1-qve-3" value="" style="endArrow=none;html=1;rounded=0;entryX=0.5;entryY=1;entryDx=0;entryDy=0;exitX=0.5;exitY=0;exitDx=0;exitDy=0;" parent="1" source="gWf2B7BKRjPqNci1-qve-2" target="3S9H1yKCVGA8mmYnyXc3-3" edge="1">
          <mxGeometry relative="1" as="geometry">
            <mxPoint x="350" y="160" as="sourcePoint" />
            <mxPoint x="510" y="160" as="targetPoint" />
          </mxGeometry>
        </mxCell>
        <mxCell id="gWf2B7BKRjPqNci1-qve-4" value="" style="endArrow=none;html=1;rounded=0;entryX=0.5;entryY=1;entryDx=0;entryDy=0;exitX=0.5;exitY=0;exitDx=0;exitDy=0;" parent="1" source="gWf2B7BKRjPqNci1-qve-1" target="gWf2B7BKRjPqNci1-qve-2" edge="1">
          <mxGeometry relative="1" as="geometry">
            <mxPoint x="480" y="330" as="sourcePoint" />
            <mxPoint x="480" y="260" as="targetPoint" />
          </mxGeometry>
        </mxCell>
        <mxCell id="gWf2B7BKRjPqNci1-qve-5" value="SETTTINGS" style="whiteSpace=wrap;html=1;align=center;" parent="1" vertex="1">
          <mxGeometry x="200" y="260" width="100" height="40" as="geometry" />
        </mxCell>
        <mxCell id="gWf2B7BKRjPqNci1-qve-6" value="" style="endArrow=none;html=1;rounded=0;entryX=0.5;entryY=1;entryDx=0;entryDy=0;exitX=0.5;exitY=0;exitDx=0;exitDy=0;" parent="1" source="gWf2B7BKRjPqNci1-qve-5" target="3S9H1yKCVGA8mmYnyXc3-2" edge="1">
          <mxGeometry relative="1" as="geometry">
            <mxPoint x="130" y="200" as="sourcePoint" />
            <mxPoint x="290" y="200" as="targetPoint" />
          </mxGeometry>
        </mxCell>
        <mxCell id="gWf2B7BKRjPqNci1-qve-8" value="1" style="text;html=1;align=center;verticalAlign=middle;resizable=0;points=[];autosize=1;strokeColor=none;fillColor=none;" parent="1" vertex="1">
          <mxGeometry x="225" y="228" width="30" height="30" as="geometry" />
        </mxCell>
        <mxCell id="gWf2B7BKRjPqNci1-qve-9" value="1" style="text;html=1;align=center;verticalAlign=middle;resizable=0;points=[];autosize=1;strokeColor=none;fillColor=none;" parent="1" vertex="1">
          <mxGeometry x="445" y="128" width="30" height="30" as="geometry" />
        </mxCell>
        <mxCell id="gWf2B7BKRjPqNci1-qve-10" value="N" style="text;html=1;align=center;verticalAlign=middle;resizable=0;points=[];autosize=1;strokeColor=none;fillColor=none;" parent="1" vertex="1">
          <mxGeometry x="435" y="288" width="30" height="30" as="geometry" />
        </mxCell>
      </root>
    </mxGraphModel>
  </diagram>
</mxfile>
